<?xml version="1.0" encoding="UTF-8"?>
<svg width="320px" height="480px" viewBox="0 0 320 480" version="1.1" xmlns="http://www.w3.org/2000/svg" xmlns:xlink="http://www.w3.org/1999/xlink">
    <!-- Generator: Sketch 52.4 (67378) - http://www.bohemiancoding.com/sketch -->
    <title>Border</title>
    <desc>Created with Sketch.</desc>
    <defs>
        <path d="M42.6761902,0 L308,0 C314.627417,-1.21743675e-15 320,5.372583 320,12 L320,468 C320,474.627417 314.627417,480 308,480 L12,480 C5.372583,480 8.11624501e-16,474.627417 0,468 L0,42.6761902 L42.6761902,1.33226763e-15 Z" id="path-1"></path>
    </defs>
    <g id="Symbols" stroke="none" stroke-width="1" fill="none" fill-rule="evenodd">
        <g id="Card/SelectedHover">
            <g id="Back">
                <mask id="mask-2" fill="white">
                    <use xlink:href="#path-1"></use>
                </mask>
                <path stroke="#E52E7A" stroke-width="4" d="M43.5046174,2 L2,43.5046174 L2,468 C2,473.522847 6.4771525,478 12,478 L308,478 C313.522847,478 318,473.522847 318,468 L318,12 C318,6.4771525 313.522847,2 308,2 L43.5046174,2 Z"></path>
            </g>
        </g>
    </g>
</svg>